# xmcd
#
# Track frame offsets: 
#        183
#        8100
#        16133
#        26945
#        31508
#        42415
#        49308
#        62558
#        68350
#        80455
#        86240
#        90720
#        94683
#        101678
#        114905
#        119540
#        141018
#        145225
#        149610
#        163525
#        172888
#        180843
#        185545
#        203985
#        208518
#        213470
#        220085
#        224573
#
# Disc length: 3082 seconds
#
# Revision: 0
# Processed by: cddbd v1.5.2PL0 Copyright (c) Steve Scherf et al.
# Submitted via: ExactAudioCopy v0.99pb4
#
DISCID=8c0c081c
DTITLE=Joao Carlos Martins - J. S. Bach - Keyboard Works Vol. 8-2 - Th
DTITLE=e French Suites and Overture In The French Style 2
DYEAR=1998
DGENRE=Classical
TTITLE0=French Suite No. 3 In B Minor BWV 814 - Allemande
TTITLE1=French Suite No. 3 In B Minor BWV 814 - Courante
TTITLE2=French Suite No. 3 In B Minor BWV 814 - Sarabande
TTITLE3=French Suite No. 3 In B Minor BWV 814 - Anglaise
TTITLE4=French Suite No. 3 In B Minor BWV 814 - Menuet and Trio
TTITLE5=French Suite No. 3 In B Minor BWV 814 - Gigue
TTITLE6=French Suite No. 4 In E Flat Major BWV 815 - Allemande
TTITLE7=French Suite No. 4 In E Flat Major BWV 815 - Courante
TTITLE8=French Suite No. 4 In E Flat Major BWV 815 - Sarabande
TTITLE9=French Suite No. 4 In E Flat Major BWV 815 - Gavotte
TTITLE10=French Suite No. 4 In E Flat Major BWV 815 - Menuet
TTITLE11=French Suite No. 4 In E Flat Major BWV 815 - Air
TTITLE12=French Suite No. 4 In E Flat Major BWV 815 - Gigue
TTITLE13=French Suite No. 5 In G Major BWV 816 - Allemande
TTITLE14=French Suite No. 5 In G Major BWV 816 - Courante
TTITLE15=French Suite No. 5 In G Major BWV 816 - Sarabande
TTITLE16=French Suite No. 5 In G Major BWV 816 - Gavotte
TTITLE17=French Suite No. 5 In G Major BWV 816 - Bourree
TTITLE18=French Suite No. 5 In G Major BWV 816 - Loure
TTITLE19=French Suite No. 5 In G Major BWV 816 - Gigue
TTITLE20=French Suite No. 6 In E Major BWV 817 - Allemande
TTITLE21=French Suite No. 6 In E Major BWV 817 - Courante
TTITLE22=French Suite No. 6 In E Major BWV 817 - Sarabande
TTITLE23=French Suite No. 6 In E Major BWV 817 - Gavotte
TTITLE24=French Suite No. 6 In E Major BWV 817 - Polonaise
TTITLE25=French Suite No. 6 In E Major BWV 817 - Menuet
TTITLE26=French Suite No. 6 In E Major BWV 817 - Bourree
TTITLE27=French Suite No. 6 In E Major BWV 817 - Gigue
EXTD=
EXTT0=
EXTT1=
EXTT2=
EXTT3=
EXTT4=
EXTT5=
EXTT6=
EXTT7=
EXTT8=
EXTT9=
EXTT10=
EXTT11=
EXTT12=
EXTT13=
EXTT14=
EXTT15=
EXTT16=
EXTT17=
EXTT18=
EXTT19=
EXTT20=
EXTT21=
EXTT22=
EXTT23=
EXTT24=
EXTT25=
EXTT26=
EXTT27=
PLAYORDER=
